<mxfile host="app.diagrams.net" agent="Mozilla/5.0 (Windows NT 10.0; Win64; x64) AppleWebKit/537.36 (KHTML, like Gecko) Chrome/139.0.0.0 Safari/537.36" version="28.1.2">
  <diagram name="Page-1" id="vpEQLEj9YnRDhis9yvVw">
    <mxGraphModel dx="1497" dy="820" grid="1" gridSize="10" guides="1" tooltips="1" connect="1" arrows="1" fold="1" page="1" pageScale="1" pageWidth="850" pageHeight="1100" math="0" shadow="0">
      <root>
        <mxCell id="0" />
        <mxCell id="1" parent="0" />
        <mxCell id="KLSkpIB5NiqMdhKE8LB_-2" value="Tour" style="whiteSpace=wrap;strokeWidth=2;" vertex="1" parent="1">
          <mxGeometry x="20" y="1041" width="1030" height="1042" as="geometry" />
        </mxCell>
        <mxCell id="KLSkpIB5NiqMdhKE8LB_-3" value="Pre-Tour" style="whiteSpace=wrap;strokeWidth=2;" vertex="1" parent="1">
          <mxGeometry x="394" y="20" width="308" height="971" as="geometry" />
        </mxCell>
        <mxCell id="KLSkpIB5NiqMdhKE8LB_-4" value="Start" style="whiteSpace=wrap;strokeWidth=2;" vertex="1" parent="1">
          <mxGeometry x="500" y="45" width="95" height="54" as="geometry" />
        </mxCell>
        <mxCell id="KLSkpIB5NiqMdhKE8LB_-5" value="Select Tour Type" style="rhombus;strokeWidth=2;whiteSpace=wrap;" vertex="1" parent="1">
          <mxGeometry x="462" y="149" width="171" height="171" as="geometry" />
        </mxCell>
        <mxCell id="KLSkpIB5NiqMdhKE8LB_-6" value="Lead Capture Form" style="whiteSpace=wrap;strokeWidth=2;" vertex="1" parent="1">
          <mxGeometry x="449" y="392" width="197" height="54" as="geometry" />
        </mxCell>
        <mxCell id="KLSkpIB5NiqMdhKE8LB_-7" value="Select University" style="whiteSpace=wrap;strokeWidth=2;" vertex="1" parent="1">
          <mxGeometry x="457" y="496" width="181" height="54" as="geometry" />
        </mxCell>
        <mxCell id="KLSkpIB5NiqMdhKE8LB_-8" value="University Screen" style="whiteSpace=wrap;strokeWidth=2;" vertex="1" parent="1">
          <mxGeometry x="455" y="600" width="185" height="54" as="geometry" />
        </mxCell>
        <mxCell id="KLSkpIB5NiqMdhKE8LB_-9" value="Build Your Tour" style="whiteSpace=wrap;strokeWidth=2;" vertex="1" parent="1">
          <mxGeometry x="464" y="704" width="167" height="54" as="geometry" />
        </mxCell>
        <mxCell id="KLSkpIB5NiqMdhKE8LB_-10" value="Select Interests &amp; Filters" style="whiteSpace=wrap;strokeWidth=2;" vertex="1" parent="1">
          <mxGeometry x="429" y="808" width="238" height="54" as="geometry" />
        </mxCell>
        <mxCell id="KLSkpIB5NiqMdhKE8LB_-11" value="Choose Tour Length" style="whiteSpace=wrap;strokeWidth=2;" vertex="1" parent="1">
          <mxGeometry x="448" y="912" width="200" height="54" as="geometry" />
        </mxCell>
        <mxCell id="KLSkpIB5NiqMdhKE8LB_-12" value="View Generated Tour" style="whiteSpace=wrap;strokeWidth=2;" vertex="1" parent="1">
          <mxGeometry x="442" y="1066" width="210" height="54" as="geometry" />
        </mxCell>
        <mxCell id="KLSkpIB5NiqMdhKE8LB_-13" value="Customize Tour?" style="rhombus;strokeWidth=2;whiteSpace=wrap;" vertex="1" parent="1">
          <mxGeometry x="463" y="1170" width="169" height="169" as="geometry" />
        </mxCell>
        <mxCell id="KLSkpIB5NiqMdhKE8LB_-14" value="Reorder/Add/Delete Stops" style="whiteSpace=wrap;strokeWidth=2;" vertex="1" parent="1">
          <mxGeometry x="58" y="1412" width="250" height="54" as="geometry" />
        </mxCell>
        <mxCell id="KLSkpIB5NiqMdhKE8LB_-15" value="Start Tour" style="whiteSpace=wrap;strokeWidth=2;" vertex="1" parent="1">
          <mxGeometry x="482" y="1516" width="130" height="54" as="geometry" />
        </mxCell>
        <mxCell id="KLSkpIB5NiqMdhKE8LB_-16" value="On Tour - Map View with Route" style="whiteSpace=wrap;strokeWidth=2;" vertex="1" parent="1">
          <mxGeometry x="417" y="1620" width="260" height="78" as="geometry" />
        </mxCell>
        <mxCell id="KLSkpIB5NiqMdhKE8LB_-17" value="At a Waypoint?" style="rhombus;strokeWidth=2;whiteSpace=wrap;" vertex="1" parent="1">
          <mxGeometry x="467" y="1748" width="160" height="160" as="geometry" />
        </mxCell>
        <mxCell id="KLSkpIB5NiqMdhKE8LB_-18" value="View Waypoint Details &amp; Media" style="whiteSpace=wrap;strokeWidth=2;" vertex="1" parent="1">
          <mxGeometry x="55" y="1980" width="260" height="78" as="geometry" />
        </mxCell>
        <mxCell id="KLSkpIB5NiqMdhKE8LB_-19" value="Navigate to next Waypoint" style="whiteSpace=wrap;strokeWidth=2;" vertex="1" parent="1">
          <mxGeometry x="365" y="1992" width="250" height="54" as="geometry" />
        </mxCell>
        <mxCell id="KLSkpIB5NiqMdhKE8LB_-20" value="Action?" style="rhombus;strokeWidth=2;whiteSpace=wrap;" vertex="1" parent="1">
          <mxGeometry x="812" y="1775" width="105" height="105" as="geometry" />
        </mxCell>
        <mxCell id="KLSkpIB5NiqMdhKE8LB_-21" value="Tour Paused" style="whiteSpace=wrap;strokeWidth=2;" vertex="1" parent="1">
          <mxGeometry x="665" y="1992" width="145" height="54" as="geometry" />
        </mxCell>
        <mxCell id="KLSkpIB5NiqMdhKE8LB_-22" value="Tour Finished" style="whiteSpace=wrap;strokeWidth=2;" vertex="1" parent="1">
          <mxGeometry x="860" y="1992" width="155" height="54" as="geometry" />
        </mxCell>
        <mxCell id="KLSkpIB5NiqMdhKE8LB_-23" value="" style="curved=1;startArrow=none;endArrow=block;exitX=0.5;exitY=1;entryX=0.5;entryY=0;rounded=0;" edge="1" parent="1" source="KLSkpIB5NiqMdhKE8LB_-4" target="KLSkpIB5NiqMdhKE8LB_-5">
          <mxGeometry relative="1" as="geometry">
            <Array as="points" />
          </mxGeometry>
        </mxCell>
        <mxCell id="KLSkpIB5NiqMdhKE8LB_-24" value="Self-Guided" style="curved=1;startArrow=none;endArrow=block;exitX=0.5;exitY=1;entryX=0.5;entryY=0.01;rounded=0;" edge="1" parent="1" source="KLSkpIB5NiqMdhKE8LB_-5" target="KLSkpIB5NiqMdhKE8LB_-6">
          <mxGeometry relative="1" as="geometry">
            <Array as="points" />
          </mxGeometry>
        </mxCell>
        <mxCell id="KLSkpIB5NiqMdhKE8LB_-25" value="" style="curved=1;startArrow=none;endArrow=block;exitX=0.5;exitY=1.01;entryX=0.5;entryY=0.01;rounded=0;" edge="1" parent="1" source="KLSkpIB5NiqMdhKE8LB_-6" target="KLSkpIB5NiqMdhKE8LB_-7">
          <mxGeometry relative="1" as="geometry">
            <Array as="points" />
          </mxGeometry>
        </mxCell>
        <mxCell id="KLSkpIB5NiqMdhKE8LB_-26" value="" style="curved=1;startArrow=none;endArrow=block;exitX=0.5;exitY=1.01;entryX=0.5;entryY=0.01;rounded=0;" edge="1" parent="1" source="KLSkpIB5NiqMdhKE8LB_-7" target="KLSkpIB5NiqMdhKE8LB_-8">
          <mxGeometry relative="1" as="geometry">
            <Array as="points" />
          </mxGeometry>
        </mxCell>
        <mxCell id="KLSkpIB5NiqMdhKE8LB_-27" value="" style="curved=1;startArrow=none;endArrow=block;exitX=0.5;exitY=1.01;entryX=0.5;entryY=0.01;rounded=0;" edge="1" parent="1" source="KLSkpIB5NiqMdhKE8LB_-8" target="KLSkpIB5NiqMdhKE8LB_-9">
          <mxGeometry relative="1" as="geometry">
            <Array as="points" />
          </mxGeometry>
        </mxCell>
        <mxCell id="KLSkpIB5NiqMdhKE8LB_-28" value="" style="curved=1;startArrow=none;endArrow=block;exitX=0.5;exitY=1.01;entryX=0.5;entryY=0.01;rounded=0;" edge="1" parent="1" source="KLSkpIB5NiqMdhKE8LB_-9" target="KLSkpIB5NiqMdhKE8LB_-10">
          <mxGeometry relative="1" as="geometry">
            <Array as="points" />
          </mxGeometry>
        </mxCell>
        <mxCell id="KLSkpIB5NiqMdhKE8LB_-29" value="" style="curved=1;startArrow=none;endArrow=block;exitX=0.5;exitY=1.01;entryX=0.5;entryY=0.01;rounded=0;" edge="1" parent="1" source="KLSkpIB5NiqMdhKE8LB_-10" target="KLSkpIB5NiqMdhKE8LB_-11">
          <mxGeometry relative="1" as="geometry">
            <Array as="points" />
          </mxGeometry>
        </mxCell>
        <mxCell id="KLSkpIB5NiqMdhKE8LB_-30" value="" style="curved=1;startArrow=none;endArrow=block;exitX=0.5;exitY=1.01;entryX=0.5;entryY=0.01;rounded=0;" edge="1" parent="1" source="KLSkpIB5NiqMdhKE8LB_-11" target="KLSkpIB5NiqMdhKE8LB_-12">
          <mxGeometry relative="1" as="geometry">
            <Array as="points" />
          </mxGeometry>
        </mxCell>
        <mxCell id="KLSkpIB5NiqMdhKE8LB_-31" value="" style="curved=1;startArrow=none;endArrow=block;exitX=0.5;exitY=1.01;entryX=0.5;entryY=0;rounded=0;" edge="1" parent="1" source="KLSkpIB5NiqMdhKE8LB_-12" target="KLSkpIB5NiqMdhKE8LB_-13">
          <mxGeometry relative="1" as="geometry">
            <Array as="points" />
          </mxGeometry>
        </mxCell>
        <mxCell id="KLSkpIB5NiqMdhKE8LB_-32" value="Yes" style="curved=1;startArrow=none;endArrow=block;exitX=0;exitY=0.67;entryX=0.5;entryY=0;rounded=0;" edge="1" parent="1" source="KLSkpIB5NiqMdhKE8LB_-13" target="KLSkpIB5NiqMdhKE8LB_-14">
          <mxGeometry relative="1" as="geometry">
            <Array as="points">
              <mxPoint x="183" y="1376" />
            </Array>
          </mxGeometry>
        </mxCell>
        <mxCell id="KLSkpIB5NiqMdhKE8LB_-33" value="No" style="curved=1;startArrow=none;endArrow=block;exitX=1;exitY=0.65;entryX=1;entryY=0.34;rounded=0;" edge="1" parent="1" source="KLSkpIB5NiqMdhKE8LB_-13" target="KLSkpIB5NiqMdhKE8LB_-15">
          <mxGeometry relative="1" as="geometry">
            <Array as="points">
              <mxPoint x="952" y="1376" />
              <mxPoint x="952" y="1491" />
            </Array>
          </mxGeometry>
        </mxCell>
        <mxCell id="KLSkpIB5NiqMdhKE8LB_-34" value="" style="curved=1;startArrow=none;endArrow=block;exitX=0.5;exitY=1;entryX=0;entryY=0.33;rounded=0;" edge="1" parent="1" source="KLSkpIB5NiqMdhKE8LB_-14" target="KLSkpIB5NiqMdhKE8LB_-15">
          <mxGeometry relative="1" as="geometry">
            <Array as="points">
              <mxPoint x="183" y="1491" />
            </Array>
          </mxGeometry>
        </mxCell>
        <mxCell id="KLSkpIB5NiqMdhKE8LB_-35" value="" style="curved=1;startArrow=none;endArrow=block;exitX=0.5;exitY=1;entryX=0.5;entryY=0;rounded=0;" edge="1" parent="1" source="KLSkpIB5NiqMdhKE8LB_-15" target="KLSkpIB5NiqMdhKE8LB_-16">
          <mxGeometry relative="1" as="geometry">
            <Array as="points" />
          </mxGeometry>
        </mxCell>
        <mxCell id="KLSkpIB5NiqMdhKE8LB_-36" value="" style="curved=1;startArrow=none;endArrow=block;exitX=0.5;exitY=1;entryX=0.5;entryY=0;rounded=0;" edge="1" parent="1" source="KLSkpIB5NiqMdhKE8LB_-16" target="KLSkpIB5NiqMdhKE8LB_-17">
          <mxGeometry relative="1" as="geometry">
            <Array as="points" />
          </mxGeometry>
        </mxCell>
        <mxCell id="KLSkpIB5NiqMdhKE8LB_-37" value="Yes" style="curved=1;startArrow=none;endArrow=block;exitX=0;exitY=0.76;entryX=0.77;entryY=0;rounded=0;" edge="1" parent="1" source="KLSkpIB5NiqMdhKE8LB_-17" target="KLSkpIB5NiqMdhKE8LB_-18">
          <mxGeometry relative="1" as="geometry">
            <Array as="points">
              <mxPoint x="321" y="1944" />
            </Array>
          </mxGeometry>
        </mxCell>
        <mxCell id="KLSkpIB5NiqMdhKE8LB_-38" value="" style="curved=1;startArrow=none;endArrow=block;exitX=0.36;exitY=0;entryX=0;entryY=0.74;rounded=0;" edge="1" parent="1" source="KLSkpIB5NiqMdhKE8LB_-18" target="KLSkpIB5NiqMdhKE8LB_-16">
          <mxGeometry relative="1" as="geometry">
            <Array as="points">
              <mxPoint x="113" y="1944" />
              <mxPoint x="113" y="1723" />
            </Array>
          </mxGeometry>
        </mxCell>
        <mxCell id="KLSkpIB5NiqMdhKE8LB_-39" value="No" style="curved=1;startArrow=none;endArrow=block;exitX=0.5;exitY=1;entryX=0.58;entryY=0;rounded=0;" edge="1" parent="1" source="KLSkpIB5NiqMdhKE8LB_-17" target="KLSkpIB5NiqMdhKE8LB_-19">
          <mxGeometry relative="1" as="geometry">
            <Array as="points">
              <mxPoint x="547" y="1944" />
            </Array>
          </mxGeometry>
        </mxCell>
        <mxCell id="KLSkpIB5NiqMdhKE8LB_-40" value="" style="curved=1;startArrow=none;endArrow=block;exitX=0.31;exitY=0;entryX=0.05;entryY=1;rounded=0;" edge="1" parent="1" source="KLSkpIB5NiqMdhKE8LB_-19" target="KLSkpIB5NiqMdhKE8LB_-16">
          <mxGeometry relative="1" as="geometry">
            <Array as="points">
              <mxPoint x="354" y="1944" />
              <mxPoint x="354" y="1723" />
            </Array>
          </mxGeometry>
        </mxCell>
        <mxCell id="KLSkpIB5NiqMdhKE8LB_-41" value="" style="curved=1;startArrow=none;endArrow=block;exitX=1;exitY=0.84;entryX=0.5;entryY=0;rounded=0;" edge="1" parent="1" source="KLSkpIB5NiqMdhKE8LB_-16" target="KLSkpIB5NiqMdhKE8LB_-20">
          <mxGeometry relative="1" as="geometry">
            <Array as="points">
              <mxPoint x="864" y="1723" />
            </Array>
          </mxGeometry>
        </mxCell>
        <mxCell id="KLSkpIB5NiqMdhKE8LB_-42" value="Pause Tour" style="curved=1;startArrow=none;endArrow=block;exitX=0.18;exitY=1.01;entryX=0.63;entryY=0;rounded=0;" edge="1" parent="1" source="KLSkpIB5NiqMdhKE8LB_-20" target="KLSkpIB5NiqMdhKE8LB_-21">
          <mxGeometry relative="1" as="geometry">
            <Array as="points">
              <mxPoint x="791" y="1944" />
            </Array>
          </mxGeometry>
        </mxCell>
        <mxCell id="KLSkpIB5NiqMdhKE8LB_-43" value="" style="curved=1;startArrow=none;endArrow=block;exitX=0.34;exitY=0;entryX=0.79;entryY=1;rounded=0;" edge="1" parent="1" source="KLSkpIB5NiqMdhKE8LB_-21" target="KLSkpIB5NiqMdhKE8LB_-16">
          <mxGeometry relative="1" as="geometry">
            <Array as="points">
              <mxPoint x="671" y="1944" />
              <mxPoint x="671" y="1723" />
            </Array>
          </mxGeometry>
        </mxCell>
        <mxCell id="KLSkpIB5NiqMdhKE8LB_-44" value="End Tour" style="curved=1;startArrow=none;endArrow=block;exitX=0.81;exitY=1.01;entryX=0.5;entryY=0;rounded=0;" edge="1" parent="1" source="KLSkpIB5NiqMdhKE8LB_-20" target="KLSkpIB5NiqMdhKE8LB_-22">
          <mxGeometry relative="1" as="geometry">
            <Array as="points">
              <mxPoint x="937" y="1944" />
            </Array>
          </mxGeometry>
        </mxCell>
        <mxCell id="KLSkpIB5NiqMdhKE8LB_-48" value="" style="whiteSpace=wrap;strokeWidth=2;" vertex="1" parent="1">
          <mxGeometry x="900" y="10" width="740" height="971" as="geometry" />
        </mxCell>
        <mxCell id="KLSkpIB5NiqMdhKE8LB_-57" value="" style="edgeStyle=orthogonalEdgeStyle;rounded=0;orthogonalLoop=1;jettySize=auto;html=1;" edge="1" parent="1" source="KLSkpIB5NiqMdhKE8LB_-45" target="KLSkpIB5NiqMdhKE8LB_-47">
          <mxGeometry relative="1" as="geometry" />
        </mxCell>
        <mxCell id="KLSkpIB5NiqMdhKE8LB_-45" value="Start" style="whiteSpace=wrap;strokeWidth=2;" vertex="1" parent="1">
          <mxGeometry x="1222.5" y="70" width="95" height="54" as="geometry" />
        </mxCell>
        <mxCell id="KLSkpIB5NiqMdhKE8LB_-52" value="" style="edgeStyle=orthogonalEdgeStyle;rounded=0;orthogonalLoop=1;jettySize=auto;html=1;" edge="1" parent="1" source="KLSkpIB5NiqMdhKE8LB_-47" target="KLSkpIB5NiqMdhKE8LB_-51">
          <mxGeometry relative="1" as="geometry" />
        </mxCell>
        <mxCell id="KLSkpIB5NiqMdhKE8LB_-53" value="Self-Guided" style="edgeLabel;html=1;align=center;verticalAlign=middle;resizable=0;points=[];" vertex="1" connectable="0" parent="KLSkpIB5NiqMdhKE8LB_-52">
          <mxGeometry x="-0.1875" y="-3" relative="1" as="geometry">
            <mxPoint x="15" y="-12" as="offset" />
          </mxGeometry>
        </mxCell>
        <mxCell id="KLSkpIB5NiqMdhKE8LB_-55" value="" style="edgeStyle=orthogonalEdgeStyle;rounded=0;orthogonalLoop=1;jettySize=auto;html=1;" edge="1" parent="1" source="KLSkpIB5NiqMdhKE8LB_-47" target="KLSkpIB5NiqMdhKE8LB_-54">
          <mxGeometry relative="1" as="geometry" />
        </mxCell>
        <mxCell id="KLSkpIB5NiqMdhKE8LB_-56" value="Ambassador-Led" style="edgeLabel;html=1;align=center;verticalAlign=middle;resizable=0;points=[];" vertex="1" connectable="0" parent="KLSkpIB5NiqMdhKE8LB_-55">
          <mxGeometry x="-0.42" y="-2" relative="1" as="geometry">
            <mxPoint x="1" y="-17" as="offset" />
          </mxGeometry>
        </mxCell>
        <mxCell id="KLSkpIB5NiqMdhKE8LB_-47" value="Select Tour Type" style="rhombus;strokeWidth=2;whiteSpace=wrap;" vertex="1" parent="1">
          <mxGeometry x="1201" y="160" width="138" height="90" as="geometry" />
        </mxCell>
        <mxCell id="KLSkpIB5NiqMdhKE8LB_-51" value="" style="whiteSpace=wrap;html=1;strokeWidth=2;" vertex="1" parent="1">
          <mxGeometry x="997" y="260" width="120" height="60" as="geometry" />
        </mxCell>
        <mxCell id="KLSkpIB5NiqMdhKE8LB_-54" value="" style="whiteSpace=wrap;html=1;strokeWidth=2;" vertex="1" parent="1">
          <mxGeometry x="1433" y="260" width="120" height="60" as="geometry" />
        </mxCell>
        <mxCell id="KLSkpIB5NiqMdhKE8LB_-58" value="During Tour" style="whiteSpace=wrap;strokeWidth=2;" vertex="1" parent="1">
          <mxGeometry x="118" y="3558" width="1435" height="523" as="geometry" />
        </mxCell>
        <mxCell id="KLSkpIB5NiqMdhKE8LB_-59" value="Pre-Tour" style="whiteSpace=wrap;strokeWidth=2;" vertex="1" parent="1">
          <mxGeometry x="368" y="2240" width="640" height="1268" as="geometry" />
        </mxCell>
        <mxCell id="KLSkpIB5NiqMdhKE8LB_-60" value="Start" style="whiteSpace=wrap;strokeWidth=2;" vertex="1" parent="1">
          <mxGeometry x="640" y="2265" width="95" height="54" as="geometry" />
        </mxCell>
        <mxCell id="KLSkpIB5NiqMdhKE8LB_-61" value="Select Tour Type" style="rhombus;strokeWidth=2;whiteSpace=wrap;" vertex="1" parent="1">
          <mxGeometry x="602" y="2369" width="171" height="171" as="geometry" />
        </mxCell>
        <mxCell id="KLSkpIB5NiqMdhKE8LB_-62" value="Sign In / Sign Up" style="whiteSpace=wrap;strokeWidth=2;" vertex="1" parent="1">
          <mxGeometry x="599" y="2612" width="178" height="54" as="geometry" />
        </mxCell>
        <mxCell id="KLSkpIB5NiqMdhKE8LB_-63" value="Select Tour Mode" style="rhombus;strokeWidth=2;whiteSpace=wrap;" vertex="1" parent="1">
          <mxGeometry x="600" y="2716" width="176" height="176" as="geometry" />
        </mxCell>
        <mxCell id="KLSkpIB5NiqMdhKE8LB_-64" value="Select Scheduled Tour Group" style="whiteSpace=wrap;strokeWidth=2;" vertex="1" parent="1">
          <mxGeometry x="403" y="3301" width="260" height="78" as="geometry" />
        </mxCell>
        <mxCell id="KLSkpIB5NiqMdhKE8LB_-65" value="Create Impromptu Tour" style="whiteSpace=wrap;strokeWidth=2;" vertex="1" parent="1">
          <mxGeometry x="729" y="2965" width="227" height="54" as="geometry" />
        </mxCell>
        <mxCell id="KLSkpIB5NiqMdhKE8LB_-66" value="Choose Stops &amp; Tour Length" style="whiteSpace=wrap;strokeWidth=2;" vertex="1" parent="1">
          <mxGeometry x="713" y="3069" width="259" height="54" as="geometry" />
        </mxCell>
        <mxCell id="KLSkpIB5NiqMdhKE8LB_-67" value="Generate QR Code for Users" style="whiteSpace=wrap;strokeWidth=2;" vertex="1" parent="1">
          <mxGeometry x="713" y="3173" width="260" height="78" as="geometry" />
        </mxCell>
        <mxCell id="KLSkpIB5NiqMdhKE8LB_-68" value="Group Roster - Wait for users to join" style="whiteSpace=wrap;strokeWidth=2;" vertex="1" parent="1">
          <mxGeometry x="713" y="3301" width="260" height="78" as="geometry" />
        </mxCell>
        <mxCell id="KLSkpIB5NiqMdhKE8LB_-69" value="Start Tour" style="whiteSpace=wrap;strokeWidth=2;" vertex="1" parent="1">
          <mxGeometry x="623" y="3429" width="130" height="54" as="geometry" />
        </mxCell>
        <mxCell id="KLSkpIB5NiqMdhKE8LB_-70" value="Ambassador&#39;s Tour Control Screen" style="whiteSpace=wrap;strokeWidth=2;" vertex="1" parent="1">
          <mxGeometry x="652" y="3590" width="260" height="78" as="geometry" />
        </mxCell>
        <mxCell id="KLSkpIB5NiqMdhKE8LB_-71" value="Action?" style="rhombus;strokeWidth=2;whiteSpace=wrap;" vertex="1" parent="1">
          <mxGeometry x="551" y="3755" width="105" height="105" as="geometry" />
        </mxCell>
        <mxCell id="KLSkpIB5NiqMdhKE8LB_-72" value="Add/Edit/Remove Stops in Real-time" style="whiteSpace=wrap;strokeWidth=2;" vertex="1" parent="1">
          <mxGeometry x="153" y="3978" width="260" height="78" as="geometry" />
        </mxCell>
        <mxCell id="KLSkpIB5NiqMdhKE8LB_-73" value="View Detailed Map" style="whiteSpace=wrap;strokeWidth=2;" vertex="1" parent="1">
          <mxGeometry x="463" y="3990" width="193" height="54" as="geometry" />
        </mxCell>
        <mxCell id="KLSkpIB5NiqMdhKE8LB_-74" value="View/Invite Members" style="whiteSpace=wrap;strokeWidth=2;" vertex="1" parent="1">
          <mxGeometry x="706" y="3990" width="212" height="54" as="geometry" />
        </mxCell>
        <mxCell id="KLSkpIB5NiqMdhKE8LB_-75" value="End Tour for Everyone" style="whiteSpace=wrap;strokeWidth=2;" vertex="1" parent="1">
          <mxGeometry x="968" y="3990" width="217" height="54" as="geometry" />
        </mxCell>
        <mxCell id="KLSkpIB5NiqMdhKE8LB_-76" value="User Ping Received?" style="rhombus;strokeWidth=2;whiteSpace=wrap;" vertex="1" parent="1">
          <mxGeometry x="1316" y="3711" width="195" height="195" as="geometry" />
        </mxCell>
        <mxCell id="KLSkpIB5NiqMdhKE8LB_-77" value="Acknowledge User Ping" style="whiteSpace=wrap;strokeWidth=2;" vertex="1" parent="1">
          <mxGeometry x="1235" y="3990" width="225" height="54" as="geometry" />
        </mxCell>
        <mxCell id="KLSkpIB5NiqMdhKE8LB_-78" value="" style="curved=1;startArrow=none;endArrow=block;exitX=0.5;exitY=1;entryX=0.5;entryY=0;rounded=0;" edge="1" parent="1" source="KLSkpIB5NiqMdhKE8LB_-60" target="KLSkpIB5NiqMdhKE8LB_-61">
          <mxGeometry relative="1" as="geometry">
            <Array as="points" />
          </mxGeometry>
        </mxCell>
        <mxCell id="KLSkpIB5NiqMdhKE8LB_-79" value="I&#39;m an Ambassador" style="curved=1;startArrow=none;endArrow=block;exitX=0.5;exitY=1;entryX=0.5;entryY=0.01;rounded=0;" edge="1" parent="1" source="KLSkpIB5NiqMdhKE8LB_-61" target="KLSkpIB5NiqMdhKE8LB_-62">
          <mxGeometry relative="1" as="geometry">
            <Array as="points" />
          </mxGeometry>
        </mxCell>
        <mxCell id="KLSkpIB5NiqMdhKE8LB_-80" value="" style="curved=1;startArrow=none;endArrow=block;exitX=0.5;exitY=1.01;entryX=0.5;entryY=0;rounded=0;" edge="1" parent="1" source="KLSkpIB5NiqMdhKE8LB_-62" target="KLSkpIB5NiqMdhKE8LB_-63">
          <mxGeometry relative="1" as="geometry">
            <Array as="points" />
          </mxGeometry>
        </mxCell>
        <mxCell id="KLSkpIB5NiqMdhKE8LB_-81" value="Scheduled" style="curved=1;startArrow=none;endArrow=block;exitX=0;exitY=0.9;entryX=0.5;entryY=0;rounded=0;" edge="1" parent="1" source="KLSkpIB5NiqMdhKE8LB_-63" target="KLSkpIB5NiqMdhKE8LB_-64">
          <mxGeometry relative="1" as="geometry">
            <Array as="points">
              <mxPoint x="533" y="2929" />
            </Array>
          </mxGeometry>
        </mxCell>
        <mxCell id="KLSkpIB5NiqMdhKE8LB_-82" value="Impromptu" style="curved=1;startArrow=none;endArrow=block;exitX=1;exitY=0.9;entryX=0.5;entryY=0;rounded=0;" edge="1" parent="1" source="KLSkpIB5NiqMdhKE8LB_-63" target="KLSkpIB5NiqMdhKE8LB_-65">
          <mxGeometry relative="1" as="geometry">
            <Array as="points">
              <mxPoint x="843" y="2929" />
            </Array>
          </mxGeometry>
        </mxCell>
        <mxCell id="KLSkpIB5NiqMdhKE8LB_-83" value="" style="curved=1;startArrow=none;endArrow=block;exitX=0.5;exitY=1;entryX=0.5;entryY=0;rounded=0;" edge="1" parent="1" source="KLSkpIB5NiqMdhKE8LB_-65" target="KLSkpIB5NiqMdhKE8LB_-66">
          <mxGeometry relative="1" as="geometry">
            <Array as="points" />
          </mxGeometry>
        </mxCell>
        <mxCell id="KLSkpIB5NiqMdhKE8LB_-84" value="" style="curved=1;startArrow=none;endArrow=block;exitX=0.5;exitY=1;entryX=0.5;entryY=0;rounded=0;" edge="1" parent="1" source="KLSkpIB5NiqMdhKE8LB_-66" target="KLSkpIB5NiqMdhKE8LB_-67">
          <mxGeometry relative="1" as="geometry">
            <Array as="points" />
          </mxGeometry>
        </mxCell>
        <mxCell id="KLSkpIB5NiqMdhKE8LB_-85" value="" style="curved=1;startArrow=none;endArrow=block;exitX=0.5;exitY=1;entryX=0.5;entryY=0;rounded=0;" edge="1" parent="1" source="KLSkpIB5NiqMdhKE8LB_-67" target="KLSkpIB5NiqMdhKE8LB_-68">
          <mxGeometry relative="1" as="geometry">
            <Array as="points" />
          </mxGeometry>
        </mxCell>
        <mxCell id="KLSkpIB5NiqMdhKE8LB_-86" value="" style="curved=1;startArrow=none;endArrow=block;exitX=0.5;exitY=1;entryX=1;entryY=0.09;rounded=0;" edge="1" parent="1" source="KLSkpIB5NiqMdhKE8LB_-68" target="KLSkpIB5NiqMdhKE8LB_-69">
          <mxGeometry relative="1" as="geometry">
            <Array as="points">
              <mxPoint x="843" y="3404" />
            </Array>
          </mxGeometry>
        </mxCell>
        <mxCell id="KLSkpIB5NiqMdhKE8LB_-87" value="" style="curved=1;startArrow=none;endArrow=block;exitX=0.5;exitY=1;entryX=0;entryY=0.09;rounded=0;" edge="1" parent="1" source="KLSkpIB5NiqMdhKE8LB_-64" target="KLSkpIB5NiqMdhKE8LB_-69">
          <mxGeometry relative="1" as="geometry">
            <Array as="points">
              <mxPoint x="533" y="3404" />
            </Array>
          </mxGeometry>
        </mxCell>
        <mxCell id="KLSkpIB5NiqMdhKE8LB_-88" value="" style="curved=1;startArrow=none;endArrow=block;exitX=0.5;exitY=1;entryX=0.5;entryY=0;rounded=0;" edge="1" parent="1" source="KLSkpIB5NiqMdhKE8LB_-69" target="KLSkpIB5NiqMdhKE8LB_-70">
          <mxGeometry relative="1" as="geometry">
            <Array as="points" />
          </mxGeometry>
        </mxCell>
        <mxCell id="KLSkpIB5NiqMdhKE8LB_-89" value="" style="curved=1;startArrow=none;endArrow=block;exitX=0.3;exitY=1;entryX=0.5;entryY=0;rounded=0;" edge="1" parent="1" source="KLSkpIB5NiqMdhKE8LB_-70" target="KLSkpIB5NiqMdhKE8LB_-71">
          <mxGeometry relative="1" as="geometry">
            <Array as="points">
              <mxPoint x="603" y="3686" />
            </Array>
          </mxGeometry>
        </mxCell>
        <mxCell id="KLSkpIB5NiqMdhKE8LB_-90" value="Manage Stops" style="curved=1;startArrow=none;endArrow=block;exitX=0;exitY=0.82;entryX=0.71;entryY=0;rounded=0;" edge="1" parent="1" source="KLSkpIB5NiqMdhKE8LB_-71" target="KLSkpIB5NiqMdhKE8LB_-72">
          <mxGeometry relative="1" as="geometry">
            <Array as="points">
              <mxPoint x="386" y="3942" />
            </Array>
          </mxGeometry>
        </mxCell>
        <mxCell id="KLSkpIB5NiqMdhKE8LB_-91" value="" style="curved=1;startArrow=none;endArrow=block;exitX=0.36;exitY=0;entryX=0;entryY=0.72;rounded=0;" edge="1" parent="1" source="KLSkpIB5NiqMdhKE8LB_-72" target="KLSkpIB5NiqMdhKE8LB_-70">
          <mxGeometry relative="1" as="geometry">
            <Array as="points">
              <mxPoint x="211" y="3942" />
              <mxPoint x="211" y="3686" />
            </Array>
          </mxGeometry>
        </mxCell>
        <mxCell id="KLSkpIB5NiqMdhKE8LB_-92" value="View Map" style="curved=1;startArrow=none;endArrow=block;exitX=0.5;exitY=1.01;entryX=0.58;entryY=0;rounded=0;" edge="1" parent="1" source="KLSkpIB5NiqMdhKE8LB_-71" target="KLSkpIB5NiqMdhKE8LB_-73">
          <mxGeometry relative="1" as="geometry">
            <Array as="points">
              <mxPoint x="603" y="3942" />
            </Array>
          </mxGeometry>
        </mxCell>
        <mxCell id="KLSkpIB5NiqMdhKE8LB_-93" value="" style="curved=1;startArrow=none;endArrow=block;exitX=0.31;exitY=0;entryX=0;entryY=0.96;rounded=0;" edge="1" parent="1" source="KLSkpIB5NiqMdhKE8LB_-73" target="KLSkpIB5NiqMdhKE8LB_-70">
          <mxGeometry relative="1" as="geometry">
            <Array as="points">
              <mxPoint x="457" y="3942" />
              <mxPoint x="457" y="3686" />
            </Array>
          </mxGeometry>
        </mxCell>
        <mxCell id="KLSkpIB5NiqMdhKE8LB_-94" value="Manage Members" style="curved=1;startArrow=none;endArrow=block;exitX=1;exitY=0.75;entryX=0.62;entryY=0;rounded=0;" edge="1" parent="1" source="KLSkpIB5NiqMdhKE8LB_-71" target="KLSkpIB5NiqMdhKE8LB_-74">
          <mxGeometry relative="1" as="geometry">
            <Array as="points">
              <mxPoint x="882" y="3942" />
            </Array>
          </mxGeometry>
        </mxCell>
        <mxCell id="KLSkpIB5NiqMdhKE8LB_-95" value="" style="curved=1;startArrow=none;endArrow=block;exitX=0.43;exitY=0;entryX=0.69;entryY=1;rounded=0;" edge="1" parent="1" source="KLSkpIB5NiqMdhKE8LB_-74" target="KLSkpIB5NiqMdhKE8LB_-70">
          <mxGeometry relative="1" as="geometry">
            <Array as="points">
              <mxPoint x="770" y="3942" />
              <mxPoint x="770" y="3686" />
            </Array>
          </mxGeometry>
        </mxCell>
        <mxCell id="KLSkpIB5NiqMdhKE8LB_-96" value="Finish Tour" style="curved=1;startArrow=none;endArrow=block;exitX=1;exitY=0.65;entryX=0.5;entryY=0;rounded=0;" edge="1" parent="1" source="KLSkpIB5NiqMdhKE8LB_-71" target="KLSkpIB5NiqMdhKE8LB_-75">
          <mxGeometry relative="1" as="geometry">
            <Array as="points">
              <mxPoint x="1076" y="3942" />
            </Array>
          </mxGeometry>
        </mxCell>
        <mxCell id="KLSkpIB5NiqMdhKE8LB_-97" value="" style="curved=1;startArrow=none;endArrow=block;exitX=1;exitY=0.64;entryX=0.5;entryY=0;rounded=0;" edge="1" parent="1" source="KLSkpIB5NiqMdhKE8LB_-70" target="KLSkpIB5NiqMdhKE8LB_-76">
          <mxGeometry relative="1" as="geometry">
            <Array as="points">
              <mxPoint x="1414" y="3686" />
            </Array>
          </mxGeometry>
        </mxCell>
        <mxCell id="KLSkpIB5NiqMdhKE8LB_-98" value="Yes" style="curved=1;startArrow=none;endArrow=block;exitX=0.5;exitY=1;entryX=0.6;entryY=0;rounded=0;" edge="1" parent="1" source="KLSkpIB5NiqMdhKE8LB_-76" target="KLSkpIB5NiqMdhKE8LB_-77">
          <mxGeometry relative="1" as="geometry">
            <Array as="points">
              <mxPoint x="1414" y="3942" />
            </Array>
          </mxGeometry>
        </mxCell>
        <mxCell id="KLSkpIB5NiqMdhKE8LB_-99" value="" style="curved=1;startArrow=none;endArrow=block;exitX=0.33;exitY=0;entryX=1;entryY=0.69;rounded=0;" edge="1" parent="1" source="KLSkpIB5NiqMdhKE8LB_-77" target="KLSkpIB5NiqMdhKE8LB_-70">
          <mxGeometry relative="1" as="geometry">
            <Array as="points">
              <mxPoint x="1242" y="3942" />
              <mxPoint x="1242" y="3686" />
            </Array>
          </mxGeometry>
        </mxCell>
      </root>
    </mxGraphModel>
  </diagram>
</mxfile>
